<mxfile host="app.diagrams.net" modified="2024-06-06T20:40:12.321Z" agent="Mozilla/5.0 (Windows NT 10.0; Win64; x64) AppleWebKit/537.36 (KHTML, like Gecko) Chrome/125.0.0.0 Safari/537.36" version="24.5.1" etag="0d5rblDqX2G1iDNY88-b" type="github">
  <diagram name="Page-1" id="h8izf0_i7MUQaJcIMiAp">
    <mxGraphModel>
      <root>
        <mxCell id="0" />
        <mxCell id="1" parent="0" />
      </root>
    </mxGraphModel>
  </diagram>
</mxfile>
